name Walk6.mot
datacolumns 19
datarows 15
range 2.11000000 2.18000000
endheader

                time	   L_ground_force_vx	   L_ground_force_vy	   L_ground_force_vz	   L_ground_force_px	   L_ground_force_py	   L_ground_force_pz	   R_ground_force_vx	   R_ground_force_vy	   R_ground_force_vz	   R_ground_force_px	   R_ground_force_py	   R_ground_force_pz	   L_ground_torque_x	   L_ground_torque_y	   L_ground_torque_z	   R_ground_torque_x	   R_ground_torque_y	   R_ground_torque_z	
          2.11000000	          0.00000000	          0.00000000	         -0.00000000	         -0.00000000	          0.00000000	         -0.00000000	          5.51686717	         15.49638294	          2.17015329	          0.16438601	          0.00000000	          0.02948672	          0.00000000	         -0.00000000	          0.00000000	          0.00000000	          0.05213029	          0.00000000	
          2.11500000	          0.00000000	          0.00000000	         -0.00000000	         -0.00000000	          0.00000000	         -0.00000000	          3.00032289	          7.29987376	          1.42246459	          0.12590398	          0.00000000	          0.02245764	          0.00000000	         -0.00000000	          0.00000000	          0.00000000	          0.04790142	          0.00000000	
          2.12000000	          0.00000000	          0.00000000	         -0.00000000	         -0.00000000	          0.00000000	         -0.00000000	          1.14922253	          1.46627945	          0.83048657	          0.09126871	          0.00000000	          0.01617390	          0.00000000	         -0.00000000	          0.00000000	          0.00000000	          0.04140110	          0.00000000	
          2.12500000	          0.00000000	          0.00000000	         -0.00000000	         -0.00000000	          0.00000000	         -0.00000000	         -0.12874188	         -2.39065655	          0.38518109	          0.06183954	          0.00000000	          0.01086510	          0.00000000	         -0.00000000	          0.00000000	          0.00000000	          0.03395825	          0.00000000	
          2.13000000	          0.00000000	          0.00000000	         -0.00000000	         -0.00000000	          0.00000000	         -0.00000000	         -0.93809378	         -4.67496286	          0.06915214	          0.03807642	          0.00000000	          0.00660137	          0.00000000	          0.00000000	          0.00000000	          0.00000000	          0.02649960	          0.00000000	
          2.13500000	          0.00000000	          0.00000000	         -0.00000000	         -0.00000000	          0.00000000	         -0.00000000	         -1.38292359	         -5.77011121	         -0.13898020	          0.01982621	          0.00000000	          0.00334503	          0.00000000	          0.00000000	          0.00000000	          0.00000000	          0.01962072	          0.00000000	
          2.14000000	          0.00000000	          0.00000000	         -0.00000000	         -0.00000000	          0.00000000	         -0.00000000	         -1.55881180	         -6.01606260	         -0.26145979	          0.00655469	          0.00000000	          0.00099226	          0.00000000	          0.00000000	          0.00000000	          0.00000000	          0.01365766	          0.00000000	
          2.14500000	          0.00000000	          0.00000000	         -0.00000000	         -0.00000000	          0.00000000	         -0.00000000	         -1.54832234	         -5.69798866	         -0.31932526	         -0.00247448	          0.00000000	         -0.00059501	          0.00000000	          0.00000000	          0.00000000	          0.00000000	          0.00875352	          0.00000000	
          2.15000000	         -0.00000000	          0.00000000	         -0.00000000	         -0.00000000	          0.00000000	         -0.00000000	         -1.41914207	         -5.04337199	         -0.33117851	         -0.00806901	          0.00000000	         -0.00156583	          0.00000000	          0.00000000	          0.00000000	          0.00000000	          0.00491628	          0.00000000	
          2.15500000	         -0.00000000	         -0.00000000	          0.00000000	         -0.00000000	          0.00000000	         -0.00000000	         -1.22406429	         -4.22470926	         -0.31258754	         -0.01101851	          0.00000000	         -0.00206457	          0.00000000	          0.00000000	          0.00000000	          0.00000000	          0.00206672	          0.00000000	
          2.16000000	         -0.00000000	         -0.00000000	          0.00000000	         -0.00000000	          0.00000000	         -0.00000000	         -1.00215600	         -3.36559329	         -0.27594363	         -0.01203854	          0.00000000	         -0.00222111	          0.00000000	          0.00000000	          0.00000000	          0.00000000	          0.00007590	          0.00000000	
          2.16500000	         -0.00000000	         -0.00000000	          0.00000000	         -0.00000000	          0.00000000	         -0.00000000	         -0.78059210	         -2.54848112	         -0.23062079	         -0.01174056	          0.00000000	         -0.00214584	          0.00000000	          0.00000000	          0.00000000	          0.00000000	         -0.00120678	          0.00000000	
          2.17000000	         -0.00000000	         -0.00000000	          0.00000000	         -0.00000000	          0.00000000	         -0.00000000	         -0.57677206	         -1.82292888	         -0.18331681	         -0.01062093	          0.00000000	         -0.00192786	          0.00000000	          0.00000000	          0.00000000	          0.00000000	         -0.00193389	          0.00000000	
          2.17500000	         -0.00000000	         -0.00000000	          0.00000000	         -0.00000000	          0.00000000	         -0.00000000	         -0.40045052	         -1.21347465	         -0.13848355	         -0.00906295	          0.00000000	         -0.00163560	          0.00000000	          0.00000000	          0.00000000	          0.00000000	         -0.00224723	          0.00000000	
          2.18000000	         -0.00000000	         -0.00000000	          0.00000000	          0.00000000	          0.00000000	         -0.00000000	         -0.25570814	         -0.72667228	         -0.09878047	         -0.00734708	          0.00000000	         -0.00131882	          0.00000000	          0.00000000	          0.00000000	          0.00000000	         -0.00227044	          0.00000000	
